<svg width="620" height="70" viewBox="0 0 620 70" fill="none" xmlns="http://www.w3.org/2000/svg">
  <style>
    @import url('https://fonts.googleapis.com/css2?family=Inter:wght@500&amp;display=swap');
    .lbl { font-family: 'Inter', 'Segoe UI', Helvetica, Arial, sans-serif; font-weight: 500; }
  </style>
  <defs>
    <linearGradient id="pillFill" x1="0" y1="0" x2="0" y2="1">
      <stop offset="0%" stop-color="#111827"/>
      <stop offset="100%" stop-color="#0A0F1C"/>
    </linearGradient>
    <linearGradient id="pillGlowStroke" x1="0" y1="0" x2="1" y2="1">
      <stop offset="0%" stop-color="#2563EB"/>
      <stop offset="100%" stop-color="#1E293B"/>
    </linearGradient>
  </defs>

  <!-- GitHub -->
  <g transform="translate(0,0)">
    <rect width="190" height="70" rx="20" fill="url(#pillFill)" stroke="url(#pillGlowStroke)" stroke-width="1.2"/>
    <g transform="translate(30,22)" fill="#F8FAFC">
      <path d="M13,0 C5.8,0 0,5.9 0,13.2 C0,19 3.7,23.9 8.9,25.7 C9.5,25.8 9.8,25.4 9.8,25.1 C9.8,24.8 9.8,23.9 9.8,22.7 C6.2,23.5 5.4,21 5.4,21 C4.8,19.5 3.9,19.1 3.9,19.1 C2.7,18.2 4,18.3 4,18.3 C5.3,18.4 6,19.6 6,19.6 C7.2,21.6 9.1,21 9.9,20.7 C10,19.9 10.3,19.3 10.7,19 C7.9,18.7 4.9,17.6 4.9,12.6 C4.9,11.2 5.4,10.1 6.1,9.2 C6,8.9 5.6,7.6 6.2,5.9 C6.2,5.9 7.2,5.6 9.8,7.3 C10.9,7 12,6.8 13,6.8 C14.1,6.8 15.2,7 16.2,7.3 C18.8,5.6 19.8,5.9 19.8,5.9 C20.4,7.6 20,8.9 19.9,9.2 C20.6,10.1 21.1,11.2 21.1,12.6 C21.1,17.6 18.1,18.7 15.3,19 C15.8,19.4 16.2,20.2 16.2,21.4 C16.2,23.2 16.2,24.6 16.2,25.1 C16.2,25.4 16.5,25.8 17.1,25.7 C22.3,23.9 26,19 26,13.2 C26,5.9 20.2,0 13,0 Z"/>
    </g>
    <text x="80" y="40" class="lbl" font-size="15" fill="#F8FAFC">GitHub</text>
  </g>

  <!-- LinkedIn -->
  <g transform="translate(210,0)">
    <rect width="210" height="70" rx="20" fill="url(#pillFill)" stroke="url(#pillGlowStroke)" stroke-width="1.2"/>
    <g transform="translate(30,20)">
      <rect width="26" height="26" rx="6" fill="#2563EB"/>
      <rect x="6" y="10" width="4.5" height="12" fill="#F8FAFC"/>
      <circle cx="8.2" cy="6" r="2.4" fill="#F8FAFC"/>
      <path d="M14,22 L14,14.5 C14,11 20,11 20,14.5 L20,22 L15.5,22 L15.5,15.5 C15.5,13.8 14,13.8 14,15.5 Z" fill="#F8FAFC"/>
    </g>
    <text x="80" y="40" class="lbl" font-size="15" fill="#F8FAFC">LinkedIn</text>
  </g>

  <!-- Email -->
  <g transform="translate(440,0)">
    <rect width="180" height="70" rx="20" fill="url(#pillFill)" stroke="url(#pillGlowStroke)" stroke-width="1.2"/>
    <g transform="translate(30,22)" fill="none" stroke="#38BDF8" stroke-width="2">
      <rect x="0" y="0" width="26" height="19" rx="3"/>
      <path d="M0,2 L13,12 L26,2"/>
    </g>
    <text x="78" y="40" class="lbl" font-size="15" fill="#F8FAFC">Email</text>
  </g>
</svg>
